<svg width="32" height="30" viewBox="0 0 32 30" fill="none" xmlns="http://www.w3.org/2000/svg">
<path d="M1.7863 19.6876L8.48187 23.0669C8.73647 14.7943 19.9 19.3082 13.392 25.545L20.5339 29.1496L23.9132 22.454C29.4781 29.183 34.6638 17.7984 26.3913 17.5439L30.2212 9.9555L23.5256 6.57624C22.378 14.3983 12.5579 9.44204 18.1691 3.8728L11.92 0.718849C11.0272 0.268252 10.5766 1.16099 10.5766 1.16099C9.22479 3.83932 7.77503 7.82152 7.4226 7.41029C2.48791 1.65219 -3.3239 10.9477 4.71919 12.7667L1.56521 19.0159C1.56521 19.0159 1.33993 19.4623 1.7863 19.6876Z" fill="#E40089"/>
<path d="M1.7863 19.6876L2.01158 19.2412L1.7863 19.6876ZM8.48187 23.0669L8.25658 23.5132L8.95748 23.867L8.98163 23.0822L8.48187 23.0669ZM13.392 25.545L13.046 25.184L12.5358 25.673L13.1667 25.9914L13.392 25.545ZM20.5339 29.1496L20.3086 29.5959L20.755 29.8212L20.9803 29.3748L20.5339 29.1496ZM23.9132 22.454L24.2985 22.1353L23.8113 21.5462L23.4668 22.2287L23.9132 22.454ZM26.3913 17.5439L25.9449 17.3187L25.5912 18.0196L26.3759 18.0437L26.3913 17.5439ZM30.2212 9.9555L30.6676 10.1808L30.8929 9.73441L30.4465 9.50913L30.2212 9.9555ZM23.5256 6.57624L23.7509 6.12987L23.1316 5.81731L23.0309 6.50366L23.5256 6.57624ZM18.1691 3.8728L18.5214 4.22768L19.0137 3.739L18.3944 3.42643L18.1691 3.8728ZM11.92 0.718849L11.6947 1.16522L11.92 0.718849ZM10.5766 1.16099L11.023 1.38629L11.023 1.38628L10.5766 1.16099ZM7.4226 7.41029L7.04295 7.73565L7.4226 7.41029ZM4.71919 12.7667L5.16556 12.992L5.4541 12.4203L4.82949 12.2791L4.71919 12.7667ZM1.56521 19.0159L2.01158 19.2412H2.01158L1.56521 19.0159ZM1.56102 20.134L8.25658 23.5132L8.70715 22.6205L2.01158 19.2412L1.56102 20.134ZM8.98163 23.0822C9.04175 21.1289 9.73742 20.035 10.5457 19.5052C11.3664 18.9674 12.4013 18.944 13.2735 19.3234C14.1435 19.7019 14.798 20.4562 14.9095 21.4207C15.0208 22.3837 14.6049 23.6902 13.046 25.184L13.7379 25.906C15.4331 24.2815 16.0623 22.6849 15.9028 21.3059C15.7436 19.9285 14.8115 18.902 13.6724 18.4064C12.5353 17.9118 11.1383 17.9213 9.99761 18.6688C8.84453 19.4245 8.04929 20.8685 7.9821 23.0515L8.98163 23.0822ZM13.1667 25.9914L20.3086 29.5959L20.7592 28.7032L13.6173 25.0986L13.1667 25.9914ZM20.9803 29.3748L24.3596 22.6793L23.4668 22.2287L20.0876 28.9243L20.9803 29.3748ZM23.5279 22.7726C24.9837 24.533 26.5021 25.208 27.8659 25.0584C29.2167 24.9102 30.2586 23.9683 30.7937 22.8306C31.3288 21.693 31.3974 20.2776 30.707 19.1102C30.0055 17.924 28.5925 17.1114 26.4067 17.0442L26.3759 18.0437C28.3263 18.1037 29.3674 18.8096 29.8463 19.6193C30.3363 20.4478 30.3118 21.5057 29.8888 22.405C29.4659 23.3041 28.685 23.9625 27.7569 24.0644C26.8418 24.1648 25.6251 23.7394 24.2985 22.1353L23.5279 22.7726ZM26.8377 17.7692L30.6676 10.1808L29.7748 9.73022L25.9449 17.3187L26.8377 17.7692ZM30.4465 9.50913L23.7509 6.12987L23.3004 7.02261L29.9959 10.4019L30.4465 9.50913ZM23.0309 6.50366C22.76 8.35009 21.9957 9.34602 21.174 9.7991C20.3437 10.257 19.3601 10.2148 18.5381 9.79989C17.7161 9.38502 17.0979 8.61885 16.9731 7.67889C16.8496 6.7488 17.1968 5.54232 18.5214 4.22768L17.8169 3.51792C16.3358 4.9879 15.8064 6.48942 15.9818 7.81054C16.156 9.12179 17.0125 10.15 18.0875 10.6926C19.1626 11.2352 20.4986 11.3135 21.6569 10.6748C22.824 10.0312 23.7174 8.71342 24.0203 6.64882L23.0309 6.50366ZM18.3944 3.42643L12.1453 0.272478L11.6947 1.16522L17.9439 4.31917L18.3944 3.42643ZM12.1453 0.272478C11.844 0.12041 11.5497 0.0679853 11.2733 0.101469C11.0007 0.1345 10.7804 0.246796 10.615 0.369817C10.4515 0.491532 10.3335 0.629508 10.2577 0.732938C10.2191 0.785622 10.1895 0.832028 10.1686 0.866999C10.1581 0.884557 10.1496 0.899443 10.1433 0.911048C10.1401 0.916857 10.1374 0.921864 10.1353 0.925994C10.1342 0.928059 10.1332 0.929908 10.1324 0.93153C10.132 0.932341 10.1316 0.933095 10.1312 0.933792C10.1311 0.934141 10.1309 0.934475 10.1307 0.934795C10.1306 0.934955 10.1305 0.935184 10.1305 0.935264C10.1304 0.935489 10.1303 0.935711 10.5766 1.16099C11.023 1.38628 11.0229 1.38649 11.0228 1.3867C11.0228 1.38677 11.0226 1.38698 11.0226 1.38711C11.0224 1.38738 11.0223 1.38763 11.0222 1.38787C11.0219 1.38835 11.0217 1.38879 11.0215 1.38917C11.0211 1.38994 11.0208 1.39051 11.0206 1.3909C11.0202 1.39168 11.0202 1.39173 11.0205 1.39111C11.0212 1.38986 11.0234 1.386 11.0269 1.38003C11.0341 1.36794 11.0467 1.34812 11.0642 1.32415C11.1008 1.27427 11.1513 1.21723 11.212 1.17208C11.2709 1.12824 11.3306 1.10184 11.3936 1.09421C11.4528 1.08703 11.5496 1.09199 11.6947 1.16522L12.1453 0.272478ZM10.1303 0.935699C9.44772 2.28798 8.73631 3.97799 8.16887 5.23906C7.88034 5.88029 7.63333 6.40127 7.44113 6.73371C7.34025 6.9082 7.27754 6.98933 7.25325 7.01322C7.2357 7.03048 7.28139 6.97572 7.38522 6.95095C7.44762 6.93606 7.53056 6.93254 7.61923 6.96257C7.70659 6.99216 7.76641 7.0431 7.80226 7.08493L7.04295 7.73565C7.10082 7.80319 7.18481 7.87124 7.29841 7.90972C7.41332 7.94864 7.52457 7.94577 7.61728 7.92365C7.78172 7.88442 7.89602 7.78366 7.95448 7.72615C8.08221 7.60052 8.20114 7.41709 8.30686 7.23422C8.52786 6.85197 8.79386 6.2871 9.0808 5.64939C9.66432 4.35259 10.3537 2.71233 11.023 1.38629L10.1303 0.935699ZM7.80226 7.08493C6.49206 5.55611 5.05786 4.95771 3.74695 5.06387C2.44968 5.16893 1.37528 5.95768 0.771932 6.99586C0.167341 8.03617 0.0132535 9.366 0.605627 10.573C1.20022 11.7844 2.49823 12.7771 4.6089 13.2544L4.82949 12.2791C2.91861 11.8469 1.92694 10.9955 1.50333 10.1324C1.07751 9.26475 1.17672 8.28952 1.63653 7.49833C2.09758 6.70501 2.8987 6.13584 3.82767 6.06061C4.74301 5.98648 5.8858 6.38542 7.04295 7.73565L7.80226 7.08493ZM4.27282 12.5415L1.11884 18.7906L2.01158 19.2412L5.16556 12.992L4.27282 12.5415ZM1.56521 19.0159C1.11884 18.7906 1.11873 18.7909 1.11862 18.7911C1.11858 18.7912 1.11847 18.7914 1.11839 18.7915C1.11824 18.7919 1.11808 18.7922 1.11792 18.7925C1.1176 18.7931 1.11726 18.7938 1.11691 18.7945C1.1162 18.7959 1.11545 18.7975 1.11463 18.7992C1.11301 18.8025 1.11118 18.8064 1.10916 18.8107C1.10514 18.8194 1.10037 18.8301 1.09512 18.8426C1.08469 18.8676 1.07202 18.9007 1.05965 18.9404C1.03563 19.0174 1.00887 19.1314 1.00837 19.2654C1.00786 19.4016 1.03469 19.5686 1.12839 19.734C1.22395 19.9027 1.37131 20.0382 1.56102 20.134L2.01158 19.2412C1.9781 19.2243 1.98624 19.2195 1.99849 19.2412C2.00889 19.2595 2.00835 19.2727 2.00836 19.2692C2.00839 19.2634 2.01006 19.2517 2.01432 19.238C2.0161 19.2323 2.01755 19.2288 2.01769 19.2285C2.01773 19.2284 2.01736 19.2293 2.01642 19.2313C2.01595 19.2323 2.01532 19.2336 2.01453 19.2353C2.01413 19.2361 2.01369 19.237 2.0132 19.238C2.01295 19.2385 2.0127 19.239 2.01243 19.2395C2.01229 19.2398 2.01216 19.2401 2.01201 19.2404C2.01194 19.2405 2.01184 19.2407 2.0118 19.2408C2.01169 19.241 2.01158 19.2412 1.56521 19.0159Z" fill="#E40089"/>
</svg>
