<svg width="26" height="27" viewBox="0 0 26 27" fill="none" xmlns="http://www.w3.org/2000/svg">
<path d="M9.63758 25.0001L9.13758 22.0001L7.63757 21.0001C6.97091 21.1667 5.53757 21.6 5.13757 22C4.73757 22.4 3.97091 22.1667 3.63758 22.0001C2.97091 20.6667 1.53758 17.9 1.13758 17.5001C0.737578 17.1001 1.30424 16.3334 1.63758 16L3.63758 14.5001V12.5001C3.13758 12.0001 2.03758 11.0001 1.63758 11C1.23758 10.9999 1.13758 9.99998 1.13758 9.5C1.80424 8.16667 3.23758 5.4 3.63758 5C4.03758 4.6 4.47091 4.5 4.63758 4.5L7.63758 6L9.13758 5C9.30424 4.33333 9.63758 2.8 9.63758 2C9.63758 1.2 10.3042 1 10.6376 1H15.6376C16.0376 1 16.4709 1.66667 16.6376 2L17.1376 5.00007L18.6376 6C18.8042 6.00002 19.4376 5.80007 20.6376 5.00007C21.8376 4.20007 22.4709 4.66674 22.6376 5.00007C23.3042 6.16674 24.7376 8.60007 25.1376 9.00007C25.5376 9.40007 24.9709 10.5001 24.6376 11.0001L22.6376 12.5001V14.5001C23.1376 14.8334 24.2376 15.6001 24.6376 16.0001C25.0376 16.4001 25.1376 17.1667 25.1376 17.5001C24.3042 18.8334 22.6376 21.6001 22.6376 22.0001C22.6376 22.4001 21.9709 22.5001 21.6376 22.5001L18.6376 21.0001L17.1376 22.0001C16.6376 22.5001 16.6376 24.6001 16.6376 25.0001C16.6376 25.4001 15.9709 25.8334 15.6376 26.0001H10.6376C10.2376 26.0001 9.80424 25.3334 9.63758 25.0001Z" fill="#E40089" stroke="#E40089"/>
<circle cx="13.1376" cy="13.5" r="4.5" fill="white"/>
</svg>
