<svg width="24" height="24" viewBox="0 0 24 24" fill="none" xmlns="http://www.w3.org/2000/svg">
<path d="M20.763 6L12.6839 14.079L9 15L9.92098 11.3161C11.9164 9.32066 15.7897 5.44744 18 3.2371M20.763 6C20.763 6 21.8937 4.86926 22.8146 3.94829C23.7356 3.02731 20.9727 0.264385 20.0517 1.18536C19.1307 2.10634 18 3.2371 18 3.2371M20.763 6L18 3.2371" stroke="black" stroke-width="2" stroke-linecap="round"/>
<path fill-rule="evenodd" clip-rule="evenodd" d="M20 11.7782V19C20 20.6569 18.6569 22 17 22H5C3.34315 22 2 20.6569 2 19V7C2 5.34315 3.34315 4 5 4H12.2218L14.2218 2H5C2.23858 2 0 4.23858 0 7V19C0 21.7614 2.23858 24 5 24H17C19.7614 24 22 21.7614 22 19V9.77817L20 11.7782Z" fill="black"/>
</svg>
